<mxfile host="app.diagrams.net" agent="Mozilla/5.0 (Windows NT 10.0; Win64; x64) AppleWebKit/537.36 (KHTML, like Gecko) Chrome/128.0.0.0 Safari/537.36 OPR/114.0.0.0" version="24.8.6">
  <diagram name="Page-1" id="ZVQWpAv_3izE2Eje-MpK">
    <mxGraphModel dx="2760" dy="2170" grid="0" gridSize="10" guides="1" tooltips="1" connect="1" arrows="1" fold="1" page="0" pageScale="1" pageWidth="850" pageHeight="1100" math="0" shadow="0">
      <root>
        <mxCell id="0" />
        <mxCell id="1" parent="0" />
        <mxCell id="0bza2RoGWEkfIPk1Mr_0-17" value="Actor" style="shape=umlActor;verticalLabelPosition=bottom;verticalAlign=top;html=1;outlineConnect=0;" vertex="1" parent="1">
          <mxGeometry x="-76" y="-290" width="30" height="60" as="geometry" />
        </mxCell>
        <mxCell id="0bza2RoGWEkfIPk1Mr_0-18" value="&lt;span style=&quot;font-size: 12px; text-wrap: wrap;&quot;&gt;Customer&lt;/span&gt;" style="text;html=1;align=center;verticalAlign=middle;resizable=0;points=[];autosize=1;strokeColor=none;fillColor=none;fontSize=16;" vertex="1" parent="1">
          <mxGeometry x="-106" y="-333" width="70" height="31" as="geometry" />
        </mxCell>
        <mxCell id="0bza2RoGWEkfIPk1Mr_0-20" value="Actor" style="shape=umlActor;verticalLabelPosition=bottom;verticalAlign=top;html=1;outlineConnect=0;" vertex="1" parent="1">
          <mxGeometry x="677" y="-644" width="30" height="60" as="geometry" />
        </mxCell>
        <mxCell id="0bza2RoGWEkfIPk1Mr_0-21" value="&lt;span style=&quot;font-size: 12px;&quot;&gt;Admin&lt;/span&gt;" style="text;html=1;align=center;verticalAlign=middle;whiteSpace=wrap;rounded=0;fontSize=16;" vertex="1" parent="1">
          <mxGeometry x="658" y="-672" width="60" height="30" as="geometry" />
        </mxCell>
        <mxCell id="0bza2RoGWEkfIPk1Mr_0-22" value="Actor" style="shape=umlActor;verticalLabelPosition=bottom;verticalAlign=top;html=1;outlineConnect=0;" vertex="1" parent="1">
          <mxGeometry x="1470" y="-192" width="30" height="60" as="geometry" />
        </mxCell>
        <mxCell id="0bza2RoGWEkfIPk1Mr_0-24" value="&lt;span style=&quot;font-size: 12px;&quot;&gt;Delivery Driver&lt;/span&gt;" style="text;html=1;align=center;verticalAlign=middle;whiteSpace=wrap;rounded=0;fontSize=16;" vertex="1" parent="1">
          <mxGeometry x="1455" y="-233" width="60" height="30" as="geometry" />
        </mxCell>
        <mxCell id="0bza2RoGWEkfIPk1Mr_0-25" value="" style="endArrow=none;html=1;rounded=0;fontSize=12;startSize=8;endSize=8;curved=1;exitX=0.5;exitY=0.5;exitDx=0;exitDy=0;exitPerimeter=0;" edge="1" parent="1" source="0bza2RoGWEkfIPk1Mr_0-17" target="0bza2RoGWEkfIPk1Mr_0-2">
          <mxGeometry width="50" height="50" relative="1" as="geometry">
            <mxPoint x="403" y="320" as="sourcePoint" />
            <mxPoint x="453" y="270" as="targetPoint" />
          </mxGeometry>
        </mxCell>
        <mxCell id="0bza2RoGWEkfIPk1Mr_0-26" value="" style="endArrow=none;html=1;rounded=0;fontSize=12;startSize=8;endSize=8;curved=1;" edge="1" parent="1" source="0bza2RoGWEkfIPk1Mr_0-1" target="0bza2RoGWEkfIPk1Mr_0-17">
          <mxGeometry width="50" height="50" relative="1" as="geometry">
            <mxPoint x="137" y="93" as="sourcePoint" />
            <mxPoint x="187" y="43" as="targetPoint" />
          </mxGeometry>
        </mxCell>
        <mxCell id="0bza2RoGWEkfIPk1Mr_0-27" value="" style="endArrow=none;html=1;rounded=0;fontSize=12;startSize=8;endSize=8;curved=1;exitX=0.5;exitY=0.5;exitDx=0;exitDy=0;exitPerimeter=0;entryX=0.045;entryY=0.677;entryDx=0;entryDy=0;entryPerimeter=0;" edge="1" parent="1" source="0bza2RoGWEkfIPk1Mr_0-17" target="0bza2RoGWEkfIPk1Mr_0-6">
          <mxGeometry width="50" height="50" relative="1" as="geometry">
            <mxPoint x="272" y="-73" as="sourcePoint" />
            <mxPoint x="322" y="-123" as="targetPoint" />
          </mxGeometry>
        </mxCell>
        <mxCell id="0bza2RoGWEkfIPk1Mr_0-28" value="" style="endArrow=none;html=1;rounded=0;fontSize=12;startSize=8;endSize=8;curved=1;entryX=0.5;entryY=0;entryDx=0;entryDy=0;" edge="1" parent="1" source="0bza2RoGWEkfIPk1Mr_0-20" target="0bza2RoGWEkfIPk1Mr_0-7">
          <mxGeometry width="50" height="50" relative="1" as="geometry">
            <mxPoint x="272" y="189" as="sourcePoint" />
            <mxPoint x="322" y="139" as="targetPoint" />
          </mxGeometry>
        </mxCell>
        <mxCell id="0bza2RoGWEkfIPk1Mr_0-29" value="" style="endArrow=none;html=1;rounded=0;fontSize=12;startSize=8;endSize=8;curved=1;entryX=0.458;entryY=0.138;entryDx=0;entryDy=0;entryPerimeter=0;" edge="1" parent="1" source="0bza2RoGWEkfIPk1Mr_0-20" target="0bza2RoGWEkfIPk1Mr_0-8">
          <mxGeometry width="50" height="50" relative="1" as="geometry">
            <mxPoint x="348" y="71" as="sourcePoint" />
            <mxPoint x="398" y="21" as="targetPoint" />
          </mxGeometry>
        </mxCell>
        <mxCell id="0bza2RoGWEkfIPk1Mr_0-31" value="" style="endArrow=none;html=1;rounded=0;fontSize=12;startSize=8;endSize=8;curved=1;entryX=0.5;entryY=0;entryDx=0;entryDy=0;" edge="1" parent="1" source="0bza2RoGWEkfIPk1Mr_0-20" target="0bza2RoGWEkfIPk1Mr_0-30">
          <mxGeometry width="50" height="50" relative="1" as="geometry">
            <mxPoint x="396" y="-225" as="sourcePoint" />
            <mxPoint x="446" y="-275" as="targetPoint" />
          </mxGeometry>
        </mxCell>
        <mxCell id="0bza2RoGWEkfIPk1Mr_0-39" value="" style="endArrow=none;html=1;rounded=0;fontSize=12;startSize=8;endSize=8;curved=1;exitX=0.5;exitY=0;exitDx=0;exitDy=0;" edge="1" parent="1" source="0bza2RoGWEkfIPk1Mr_0-38" target="0bza2RoGWEkfIPk1Mr_0-22">
          <mxGeometry width="50" height="50" relative="1" as="geometry">
            <mxPoint x="726" y="71" as="sourcePoint" />
            <mxPoint x="776" y="21" as="targetPoint" />
          </mxGeometry>
        </mxCell>
        <mxCell id="0bza2RoGWEkfIPk1Mr_0-40" value="" style="endArrow=none;html=1;rounded=0;fontSize=12;startSize=8;endSize=8;curved=1;entryX=0;entryY=0;entryDx=0;entryDy=0;" edge="1" parent="1" source="0bza2RoGWEkfIPk1Mr_0-22" target="0bza2RoGWEkfIPk1Mr_0-34">
          <mxGeometry width="50" height="50" relative="1" as="geometry">
            <mxPoint x="726" y="71" as="sourcePoint" />
            <mxPoint x="776" y="21" as="targetPoint" />
          </mxGeometry>
        </mxCell>
        <mxCell id="0bza2RoGWEkfIPk1Mr_0-42" value="" style="endArrow=none;html=1;rounded=0;fontSize=12;startSize=8;endSize=8;curved=1;entryX=0.5;entryY=0.5;entryDx=0;entryDy=0;entryPerimeter=0;exitX=0.975;exitY=0.606;exitDx=0;exitDy=0;exitPerimeter=0;" edge="1" parent="1" source="0bza2RoGWEkfIPk1Mr_0-10" target="0bza2RoGWEkfIPk1Mr_0-22">
          <mxGeometry width="50" height="50" relative="1" as="geometry">
            <mxPoint x="1008" y="-159" as="sourcePoint" />
            <mxPoint x="776" y="21" as="targetPoint" />
          </mxGeometry>
        </mxCell>
        <mxCell id="0bza2RoGWEkfIPk1Mr_0-43" value="" style="swimlane;startSize=0;" vertex="1" parent="1">
          <mxGeometry x="-19" y="-553" width="1451" height="628" as="geometry" />
        </mxCell>
        <mxCell id="0bza2RoGWEkfIPk1Mr_0-30" value="Update Order Status" style="ellipse;whiteSpace=wrap;html=1;" vertex="1" parent="0bza2RoGWEkfIPk1Mr_0-43">
          <mxGeometry x="791" y="142" width="196" height="107" as="geometry" />
        </mxCell>
        <mxCell id="0bza2RoGWEkfIPk1Mr_0-8" value="View Orders" style="ellipse;whiteSpace=wrap;html=1;" vertex="1" parent="0bza2RoGWEkfIPk1Mr_0-43">
          <mxGeometry x="528" y="267" width="208" height="117" as="geometry" />
        </mxCell>
        <mxCell id="0bza2RoGWEkfIPk1Mr_0-7" value="&#xa;Manage Menu&#xa;&#xa;" style="ellipse;whiteSpace=wrap;html=1;" vertex="1" parent="0bza2RoGWEkfIPk1Mr_0-43">
          <mxGeometry x="284" y="92" width="215" height="97" as="geometry" />
        </mxCell>
        <mxCell id="0bza2RoGWEkfIPk1Mr_0-32" value="Manage Users" style="ellipse;whiteSpace=wrap;html=1;" vertex="1" parent="0bza2RoGWEkfIPk1Mr_0-43">
          <mxGeometry x="1025" y="85" width="239" height="87" as="geometry" />
        </mxCell>
        <mxCell id="0bza2RoGWEkfIPk1Mr_0-6" value="Track Order" style="ellipse;whiteSpace=wrap;html=1;" vertex="1" parent="0bza2RoGWEkfIPk1Mr_0-43">
          <mxGeometry x="55" y="53" width="233" height="80" as="geometry" />
        </mxCell>
        <mxCell id="0bza2RoGWEkfIPk1Mr_0-2" value="Place Order" style="ellipse;whiteSpace=wrap;html=1;" vertex="1" parent="0bza2RoGWEkfIPk1Mr_0-43">
          <mxGeometry x="116" y="303" width="264" height="88" as="geometry" />
        </mxCell>
        <mxCell id="0bza2RoGWEkfIPk1Mr_0-1" value="Browse Menu" style="ellipse;whiteSpace=wrap;html=1;" vertex="1" parent="0bza2RoGWEkfIPk1Mr_0-43">
          <mxGeometry x="133" y="440" width="228" height="84" as="geometry" />
        </mxCell>
        <mxCell id="0bza2RoGWEkfIPk1Mr_0-10" value="&amp;nbsp;View Delivery Route" style="ellipse;whiteSpace=wrap;html=1;" vertex="1" parent="0bza2RoGWEkfIPk1Mr_0-43">
          <mxGeometry x="1131" y="212" width="236" height="108" as="geometry" />
        </mxCell>
        <mxCell id="0bza2RoGWEkfIPk1Mr_0-34" value="Receive Order" style="ellipse;whiteSpace=wrap;html=1;" vertex="1" parent="0bza2RoGWEkfIPk1Mr_0-43">
          <mxGeometry x="904" y="342" width="249" height="93" as="geometry" />
        </mxCell>
        <mxCell id="0bza2RoGWEkfIPk1Mr_0-38" value="Update Delivery Status" style="ellipse;whiteSpace=wrap;html=1;" vertex="1" parent="0bza2RoGWEkfIPk1Mr_0-43">
          <mxGeometry x="744" y="505" width="263" height="95" as="geometry" />
        </mxCell>
        <mxCell id="0bza2RoGWEkfIPk1Mr_0-45" value="" style="endArrow=none;html=1;rounded=0;fontSize=12;startSize=8;endSize=8;curved=1;entryX=0.5;entryY=0;entryDx=0;entryDy=0;exitX=1;exitY=0.3333333333333333;exitDx=0;exitDy=0;exitPerimeter=0;" edge="1" parent="1" source="0bza2RoGWEkfIPk1Mr_0-20" target="0bza2RoGWEkfIPk1Mr_0-32">
          <mxGeometry width="50" height="50" relative="1" as="geometry">
            <mxPoint x="673" y="-214" as="sourcePoint" />
            <mxPoint x="716" y="-267" as="targetPoint" />
          </mxGeometry>
        </mxCell>
      </root>
    </mxGraphModel>
  </diagram>
</mxfile>
